<svg width="70" height="70" viewBox="0 0 70 70" fill="none" xmlns="http://www.w3.org/2000/svg">
<path d="M5.82166 24.7917H33.53M17.4883 48.125H23.3217M30.6133 48.125H42.28" stroke="#90C83F" stroke-width="3" stroke-miterlimit="10" stroke-linecap="round" stroke-linejoin="round"/>
<path d="M64.155 35.0875V46.9875C64.155 57.225 61.5592 59.7917 51.205 59.7917H18.7717C8.41749 59.7917 5.82166 57.225 5.82166 46.9875V23.0125C5.82166 12.775 8.41749 10.2083 18.7717 10.2083H42.28" stroke="#90C83F" stroke-width="3" stroke-linecap="round" stroke-linejoin="round"/>
<path d="M55.6383 12.0458L44.8175 22.8667C44.4092 23.275 44.0008 24.0917 43.9133 24.675L43.33 28.8167C43.1258 30.3042 44.1758 31.3542 45.6633 31.15L49.805 30.5667C50.3883 30.4792 51.205 30.0708 51.6133 29.6625L62.4342 18.8417C64.3008 16.975 65.1758 14.8167 62.4342 12.075C59.6633 9.30417 57.505 10.1792 55.6383 12.0458Z" stroke="#90C83F" stroke-width="3" stroke-miterlimit="10" stroke-linecap="round" stroke-linejoin="round"/>
<path d="M54.0925 13.5917C55.0259 16.8875 57.5925 19.4542 60.8592 20.3583" stroke="#90C83F" stroke-width="3" stroke-miterlimit="10" stroke-linecap="round" stroke-linejoin="round"/>
</svg>
