<svg width="71" height="70" viewBox="0 0 71 70" fill="none" xmlns="http://www.w3.org/2000/svg">
<path d="M25.4958 44.5375L44.5708 25.4625M26.75 5.83333H44.25C58.8333 5.83333 64.6666 11.6667 64.6666 26.25V43.75C64.6666 58.3333 58.8333 64.1667 44.25 64.1667H26.75C12.1666 64.1667 6.33331 58.3333 6.33331 43.75V26.25C6.33331 11.6667 12.1666 5.83333 26.75 5.83333Z" stroke="#90C83F" stroke-width="3" stroke-linecap="round" stroke-linejoin="round"/>
<path d="M26.6917 30.2458C27.6431 30.2458 28.5556 29.8679 29.2284 29.1951C29.9012 28.5223 30.2792 27.6098 30.2792 26.6583C30.2792 25.7069 29.9012 24.7944 29.2284 24.1216C28.5556 23.4488 27.6431 23.0708 26.6917 23.0708C25.7402 23.0708 24.8277 23.4488 24.1549 24.1216C23.4822 24.7944 23.1042 25.7069 23.1042 26.6583C23.1042 27.6098 23.4822 28.5223 24.1549 29.1951C24.8277 29.8679 25.7402 30.2458 26.6917 30.2458ZM45.7667 46.9292C46.7182 46.9292 47.6306 46.5512 48.3034 45.8784C48.9762 45.2056 49.3542 44.2931 49.3542 43.3417C49.3542 42.3902 48.9762 41.4777 48.3034 40.8049C47.6306 40.1321 46.7182 39.7542 45.7667 39.7542C44.8152 39.7542 43.9027 40.1321 43.2299 40.8049C42.5572 41.4777 42.1792 42.3902 42.1792 43.3417C42.1792 44.2931 42.5572 45.2056 43.2299 45.8784C43.9027 46.5512 44.8152 46.9292 45.7667 46.9292Z" stroke="#90C83F" stroke-width="3" stroke-linecap="round" stroke-linejoin="round"/>
</svg>
