<svg width="62" height="62" viewBox="0 0 62 62" fill="none" xmlns="http://www.w3.org/2000/svg">
<path d="M45.4958 38.1167C49.4916 38.7875 53.8958 38.0875 56.9875 36.0167C61.1 33.275 61.1 28.7833 56.9875 26.0417C53.8666 23.9708 49.4041 23.2708 45.4083 23.9708M16.4166 38.1167C12.4208 38.7875 8.01662 38.0875 4.92495 36.0167C0.812451 33.275 0.812451 28.7833 4.92495 26.0417C8.04579 23.9708 12.5083 23.2708 16.5041 23.9708M48.5 16.8833C48.3164 16.8541 48.1294 16.8541 47.9458 16.8833C45.9993 16.8129 44.1564 15.9885 42.8066 14.5843C41.4568 13.1801 40.7059 11.3061 40.7125 9.35833C40.7125 5.1875 44.0666 1.83333 48.2375 1.83333C50.2332 1.83333 52.1472 2.62614 53.5584 4.03735C54.9696 5.44857 55.7625 7.36258 55.7625 9.35833C55.7571 11.3075 54.9983 13.179 53.6447 14.5815C52.2911 15.984 50.4477 16.8088 48.5 16.8833ZM13.4125 16.8833C13.5875 16.8542 13.7916 16.8542 13.9666 16.8833C15.9131 16.8129 17.756 15.9885 19.1058 14.5843C20.4556 13.1801 21.2065 11.3061 21.2 9.35833C21.2 5.1875 17.8458 1.83333 13.675 1.83333C11.6792 1.83333 9.76518 2.62614 8.35397 4.03735C6.94276 5.44857 6.14995 7.36258 6.14995 9.35833C6.17912 13.4417 9.38745 16.7375 13.4125 16.8833ZM31 38.6708C30.8164 38.6416 30.6294 38.6416 30.4458 38.6708C28.4993 38.6004 26.6564 37.776 25.3066 36.3718C23.9568 34.9676 23.2059 33.0936 23.2125 31.1458C23.2125 26.975 26.5666 23.6208 30.7375 23.6208C32.7332 23.6208 34.6472 24.4136 36.0584 25.8249C37.4696 27.2361 38.2625 29.1501 38.2625 31.1458C38.2333 35.2292 35.025 38.5542 31 38.6708ZM22.5125 47.8583C18.4 50.6 18.4 55.0917 22.5125 57.8333C27.1791 60.9542 34.8208 60.9542 39.4875 57.8333C43.6 55.0917 43.6 50.6 39.4875 47.8583C34.85 44.7667 27.1791 44.7667 22.5125 47.8583Z" stroke="#90C83F" stroke-width="3" stroke-linecap="round" stroke-linejoin="round"/>
</svg>
