<svg width="82" height="86" viewBox="0 0 82 86" fill="none" xmlns="http://www.w3.org/2000/svg">
<path d="M0 30C0 13.4315 13.4315 0 30 0H82V86H30C13.4315 86 0 72.5685 0 56V30Z" fill="#00408E"/>
<path d="M53.133 65.8802H28.8663C24.923 65.8802 21.3263 62.8469 20.6763 58.9468L17.7947 41.7003C17.3397 39.0136 18.6397 35.5686 20.7847 33.8569L35.7997 21.8318C38.703 19.4918 43.2747 19.5135 46.1997 21.8535L61.2147 33.8569C63.338 35.5686 64.638 39.0136 64.2047 41.7003L61.323 58.9468C60.673 62.7818 57.0114 65.8802 53.133 65.8802ZM40.978 23.3702C39.8297 23.3702 38.6813 23.7168 37.8363 24.3885L22.8213 36.4136C21.5863 37.4103 20.7414 39.6202 21.0014 41.1802L23.883 58.4269C24.273 60.7019 26.548 62.6302 28.8663 62.6302H53.133C55.4514 62.6302 57.7263 60.7019 58.1163 58.4052L60.998 41.1586C61.258 39.5986 60.3913 37.3669 59.178 36.3919L44.163 24.3885C43.2964 23.7168 42.148 23.3702 40.978 23.3702Z" fill="#90C83F"/>
<path d="M41 52.2083C37.1217 52.2083 33.9584 49.045 33.9584 45.1667C33.9584 41.2883 37.1217 38.125 41 38.125C44.8784 38.125 48.0417 41.2883 48.0417 45.1667C48.0417 49.045 44.8784 52.2083 41 52.2083ZM41 41.375C38.92 41.375 37.2084 43.0867 37.2084 45.1667C37.2084 47.2467 38.92 48.9583 41 48.9583C43.08 48.9583 44.7917 47.2467 44.7917 45.1667C44.7917 43.0867 43.08 41.375 41 41.375Z" fill="#90C83F"/>
</svg>
