<svg width="206" height="30" viewBox="0 0 206 30" fill="none" xmlns="http://www.w3.org/2000/svg">
<path d="M16.3332 1.52759L20.7107 10.3959L30.4998 11.8268L23.4165 18.7259L25.0882 28.4726L16.3332 23.8684L7.57817 28.4726L9.24984 18.7259L2.1665 11.8268L11.9557 10.3959L16.3332 1.52759Z" fill="#90C83F" stroke="#90C83F" stroke-width="3" stroke-linecap="round" stroke-linejoin="round"/>
<path d="M59.6664 1.52759L64.0439 10.3959L73.8331 11.8268L66.7498 18.7259L68.4214 28.4726L59.6664 23.8684L50.9114 28.4726L52.5831 18.7259L45.4998 11.8268L55.2889 10.3959L59.6664 1.52759Z" fill="#90C83F" stroke="#90C83F" stroke-width="3" stroke-linecap="round" stroke-linejoin="round"/>
<path d="M103 1.52759L107.377 10.3959L117.167 11.8268L110.083 18.7259L111.755 28.4726L103 23.8684L94.2449 28.4726L95.9166 18.7259L88.8333 11.8268L98.6224 10.3959L103 1.52759Z" fill="#90C83F" stroke="#90C83F" stroke-width="3" stroke-linecap="round" stroke-linejoin="round"/>
<path d="M146.333 1.52759L150.711 10.3959L160.5 11.8268L153.417 18.7259L155.088 28.4726L146.333 23.8684L137.578 28.4726L139.25 18.7259L132.167 11.8268L141.956 10.3959L146.333 1.52759Z" fill="#90C83F" stroke="#90C83F" stroke-width="3" stroke-linecap="round" stroke-linejoin="round"/>
<path d="M189.666 1.52759L194.044 10.3959L203.833 11.8268L196.75 18.7259L198.421 28.4726L189.666 23.8684L180.911 28.4726L182.583 18.7259L175.5 11.8268L185.289 10.3959L189.666 1.52759Z" stroke="#90C83F" stroke-width="3" stroke-linecap="round" stroke-linejoin="round"/>
</svg>
