<svg width="82" height="86" viewBox="0 0 82 86" fill="none" xmlns="http://www.w3.org/2000/svg">
<path d="M0 30C0 13.4315 13.4315 0 30 0H82V86H30C13.4315 86 0 72.5685 0 56V30Z" fill="#00408E"/>
<path d="M40.9998 66.3134C38.6381 66.3134 36.2982 65.62 34.4565 64.255L25.1398 57.3001C22.6698 55.4584 20.7415 51.6234 20.7415 48.5467V32.4484C20.7415 29.1117 23.1898 25.5584 26.3315 24.3884L37.1431 20.3367C39.2881 19.5351 42.6682 19.5351 44.8132 20.3367L55.6465 24.3884C58.7882 25.5584 61.2365 29.1117 61.2365 32.4484V48.5467C61.2365 51.6234 59.3081 55.4584 56.8381 57.3001L47.5215 64.255C45.7015 65.62 43.3615 66.3134 40.9998 66.3134ZM38.2915 23.37L27.4798 27.4217C25.6165 28.115 23.9915 30.455 23.9915 32.4484V48.5467C23.9915 50.605 25.4432 53.4867 27.0682 54.7L36.3848 61.655C38.8765 63.5183 43.1015 63.5183 45.5931 61.655L54.9098 54.7C56.5565 53.465 57.9865 50.5834 57.9865 48.5467V32.4484C57.9865 30.4767 56.3615 28.1367 54.4982 27.4217L43.6864 23.37C42.2564 22.8284 39.7431 22.8284 38.2915 23.37Z" fill="#90C83F"/>
<path d="M40.9998 42.2851C40.9564 42.2851 40.9131 42.2851 40.8481 42.2851C37.7064 42.1984 35.4098 39.7934 35.4098 36.8684C35.4098 33.8784 37.8581 31.4301 40.8481 31.4301C43.8381 31.4301 46.2864 33.8784 46.2864 36.8684C46.2648 39.8151 43.9681 42.1984 41.0431 42.3067C41.0214 42.285 41.0214 42.2851 40.9998 42.2851ZM40.8481 34.6801C39.6347 34.6801 38.6598 35.6551 38.6598 36.8684C38.6598 38.0601 39.5915 39.0134 40.7615 39.0567C40.7615 39.0567 40.8698 39.0567 40.9998 39.0567C42.1481 38.9917 43.0364 38.0384 43.0364 36.8684C43.0581 35.6551 42.0614 34.6801 40.8481 34.6801Z" fill="#90C83F"/>
<path d="M40.9996 54.5917C39.1362 54.5917 37.2512 54.0934 35.7996 53.1184C34.3479 52.165 33.5245 50.7567 33.5245 49.2617C33.5245 47.7667 34.3479 46.3583 35.7996 45.3833C38.7246 43.4333 43.2962 43.455 46.1995 45.3833C47.6512 46.3367 48.4746 47.745 48.4746 49.24C48.4746 50.735 47.6512 52.1434 46.1995 53.1184C44.7479 54.0934 42.8629 54.5917 40.9996 54.5917ZM37.5979 48.07C37.0562 48.4167 36.7529 48.85 36.7745 49.24C36.7745 49.63 37.0779 50.0634 37.5979 50.41C39.4179 51.6234 42.5812 51.6234 44.4012 50.41C44.9429 50.0634 45.2462 49.63 45.2462 49.24C45.2462 48.85 44.9429 48.4167 44.4229 48.07C42.6029 46.8783 39.4179 46.8783 37.5979 48.07Z" fill="#90C83F"/>
</svg>
