<svg width="82" height="86" viewBox="0 0 82 86" fill="none" xmlns="http://www.w3.org/2000/svg">
<path d="M0 30C0 13.4315 13.4315 0 30 0H82V86H30C13.4315 86 0 72.5685 0 56V30Z" fill="#00408E"/>
<path d="M39.8298 48.3733C35.5831 48.3733 32.1165 44.9066 32.1165 40.66C32.1165 36.4133 35.5831 32.9467 39.8298 32.9467C44.0765 32.9467 47.5431 36.4133 47.5431 40.66C47.5431 44.9066 44.0765 48.3733 39.8298 48.3733ZM39.8298 36.2183C37.3815 36.2183 35.3665 38.2117 35.3665 40.6817C35.3665 43.1517 37.3598 45.145 39.8298 45.145C42.2998 45.145 44.2931 43.1517 44.2931 40.6817C44.2931 38.2117 42.2998 36.2183 39.8298 36.2183Z" fill="#90C83F"/>
<path d="M51.0751 62.3917C50.1868 62.3917 49.4501 61.655 49.4501 60.7667C49.4501 56.6067 45.1384 53.2266 39.8301 53.2266C34.5217 53.2266 30.2101 56.6067 30.2101 60.7667C30.2101 61.655 29.4734 62.3917 28.5851 62.3917C27.6967 62.3917 26.9601 61.655 26.9601 60.7667C26.9601 54.83 32.7234 49.9766 39.8301 49.9766C46.9367 49.9766 52.7001 54.8083 52.7001 60.7667C52.7001 61.655 51.9634 62.3917 51.0751 62.3917Z" fill="#90C83F"/>
<path d="M39.9167 66.2917C27.675 66.2917 17.7084 56.325 17.7084 44.0833C17.7084 31.8417 27.675 21.875 39.9167 21.875C42.9284 21.875 45.8317 22.46 48.5617 23.6083C49.3417 23.9333 49.7317 24.7999 49.4717 25.6016C49.2334 26.3166 49.125 27.075 49.125 27.8333C49.125 29.1117 49.4717 30.3683 50.1434 31.4516C50.49 32.0583 50.945 32.5999 51.465 33.0549C53.35 34.7666 56.145 35.3084 58.3334 34.5284C59.135 34.2251 60.045 34.6367 60.37 35.4384C61.54 38.19 62.125 41.115 62.125 44.105C62.125 56.325 52.1584 66.2917 39.9167 66.2917ZM39.9167 25.125C29.4734 25.125 20.9584 33.6183 20.9584 44.0833C20.9584 54.5483 29.4734 63.0417 39.9167 63.0417C50.36 63.0417 58.875 54.5483 58.875 44.0833C58.875 42.0033 58.5284 39.945 57.8784 37.9733C54.8884 38.4933 51.6167 37.5617 49.32 35.46C48.5617 34.81 47.89 34.0083 47.37 33.12C46.4167 31.56 45.8967 29.7183 45.8967 27.8333C45.8967 27.2483 45.94 26.685 46.0484 26.1217C44.0767 25.45 42.0184 25.125 39.9167 25.125Z" fill="#90C83F"/>
<path d="M56.1667 38.125C53.61 38.125 51.1833 37.1717 49.2983 35.46C48.54 34.81 47.8683 34.0083 47.3483 33.12C46.395 31.56 45.875 29.7183 45.875 27.8333C45.875 26.7283 46.0483 25.645 46.395 24.605C46.8717 23.1316 47.695 21.7666 48.8 20.6616C50.75 18.6683 53.3717 17.5416 56.1883 17.5416C59.135 17.5416 61.93 18.7983 63.8367 20.965C65.5267 22.85 66.48 25.2766 66.48 27.8333C66.48 28.6566 66.3717 29.4799 66.155 30.2599C65.9383 31.2349 65.5267 32.2533 64.9633 33.1417C63.7067 35.265 61.7133 36.8466 59.3733 37.5833C58.3983 37.9516 57.315 38.125 56.1667 38.125ZM56.1667 20.7916C54.2383 20.7916 52.44 21.5499 51.1183 22.9149C50.36 23.6949 49.8183 24.5832 49.4933 25.6016C49.255 26.3166 49.1467 27.075 49.1467 27.8333C49.1467 29.1116 49.4933 30.3683 50.165 31.4516C50.5117 32.0583 50.9667 32.5999 51.4867 33.0549C53.3717 34.7666 56.1667 35.3084 58.355 34.5284C60.0017 34.0084 61.345 32.9249 62.2117 31.4733C62.6017 30.8449 62.8617 30.1733 63.0133 29.5017C63.165 28.9383 63.23 28.3966 63.23 27.8333C63.23 26.1 62.58 24.4317 61.41 23.1317C60.0883 21.6367 58.1817 20.7916 56.1667 20.7916Z" fill="#90C83F"/>
<path d="M59.395 29.4149H52.9166C52.0283 29.4149 51.2916 28.6783 51.2916 27.7899C51.2916 26.9016 52.0283 26.1649 52.9166 26.1649H59.395C60.2833 26.1649 61.02 26.9016 61.02 27.7899C61.02 28.6783 60.305 29.4149 59.395 29.4149Z" fill="#90C83F"/>
<path d="M56.1666 32.73C55.2783 32.73 54.5416 31.9934 54.5416 31.105V24.6267C54.5416 23.7384 55.2783 23.0017 56.1666 23.0017C57.055 23.0017 57.7916 23.7384 57.7916 24.6267V31.105C57.7916 32.015 57.055 32.73 56.1666 32.73Z" fill="#90C83F"/>
</svg>
