<svg width="70" height="70" viewBox="0 0 70 70" fill="none" xmlns="http://www.w3.org/2000/svg">
<path d="M35 40.8333H37.9167C41.125 40.8333 43.75 38.2083 43.75 35V5.83333H17.5C13.125 5.83333 9.30416 8.25417 7.32083 11.8125" stroke="#90C83F" stroke-width="3" stroke-linecap="round" stroke-linejoin="round"/>
<path d="M5.83333 49.5833C5.83333 54.425 9.74166 58.3333 14.5833 58.3333H17.5C17.5 55.125 20.125 52.5 23.3333 52.5C26.5417 52.5 29.1667 55.125 29.1667 58.3333H40.8333C40.8333 55.125 43.4583 52.5 46.6667 52.5C49.875 52.5 52.5 55.125 52.5 58.3333H55.4167C60.2583 58.3333 64.1667 54.425 64.1667 49.5833V40.8333H55.4167C53.8125 40.8333 52.5 39.5208 52.5 37.9167V29.1667C52.5 27.5625 53.8125 26.25 55.4167 26.25H59.1792L54.1917 17.5292C53.6778 16.6367 52.9385 15.8949 52.0479 15.3779C51.1573 14.8609 50.1465 14.5869 49.1167 14.5833H43.75V35C43.75 38.2083 41.125 40.8333 37.9167 40.8333H35" stroke="#90C83F" stroke-width="3" stroke-linecap="round" stroke-linejoin="round"/>
<path d="M5.83333 23.3333H23.3333M5.83333 32.0833H17.5M5.83333 40.8333H11.6667M23.3333 64.1667C24.8804 64.1667 26.3642 63.5521 27.4581 62.4581C28.5521 61.3642 29.1667 59.8804 29.1667 58.3333C29.1667 56.7862 28.5521 55.3025 27.4581 54.2085C26.3642 53.1146 24.8804 52.5 23.3333 52.5C21.7862 52.5 20.3025 53.1146 19.2085 54.2085C18.1146 55.3025 17.5 56.7862 17.5 58.3333C17.5 59.8804 18.1146 61.3642 19.2085 62.4581C20.3025 63.5521 21.7862 64.1667 23.3333 64.1667ZM46.6667 64.1667C48.2138 64.1667 49.6975 63.5521 50.7914 62.4581C51.8854 61.3642 52.5 59.8804 52.5 58.3333C52.5 56.7862 51.8854 55.3025 50.7914 54.2085C49.6975 53.1146 48.2138 52.5 46.6667 52.5C45.1196 52.5 43.6358 53.1146 42.5419 54.2085C41.4479 55.3025 40.8333 56.7862 40.8333 58.3333C40.8333 59.8804 41.4479 61.3642 42.5419 62.4581C43.6358 63.5521 45.1196 64.1667 46.6667 64.1667ZM64.1667 35V40.8333H55.4167C53.8125 40.8333 52.5 39.5208 52.5 37.9167V29.1667C52.5 27.5625 53.8125 26.25 55.4167 26.25H59.1792L64.1667 35Z" stroke="#90C83F" stroke-width="3" stroke-linecap="round" stroke-linejoin="round"/>
</svg>
